<svg xmlns="http://www.w3.org/2000/svg" width="16" height="16" viewBox="442 5905 16 16"><path d="M450 5905c-4.416 0-8 3.584-8 8s3.584 8 8 8 8-3.584 8-8-3.584-8-8-8Zm2.824 9.976a.604.604 0 0 1 0 .848.594.594 0 0 1-.424.176.594.594 0 0 1-.424-.176l-1.976-1.976-1.976 1.976a.594.594 0 0 1-.424.176.594.594 0 0 1-.424-.176.604.604 0 0 1 0-.848l1.976-1.976-1.976-1.976a.604.604 0 0 1 0-.848.604.604 0 0 1 .848 0l1.976 1.976 1.976-1.976a.604.604 0 0 1 .848 0 .604.604 0 0 1 0 .848l-1.976 1.976 1.976 1.976Z" fill="#ef466f" fill-rule="evenodd" data-name="times-circle"/></svg>