<svg xmlns="http://www.w3.org/2000/svg" width="16" height="16" viewBox="0 0 16 16">
  <g id="grid-square" transform="translate(-1275.25 -3616.25)">
    <path id="grid-square-2" data-name="grid-square" d="M1285.193,3623.107h-2.743a1.89,1.89,0,0,1-2.057-2.057v-2.743a1.89,1.89,0,0,1,2.057-2.057h2.743a1.89,1.89,0,0,1,2.057,2.057v2.743A1.89,1.89,0,0,1,1285.193,3623.107Zm-2.743-5.486c-.538,0-.686.147-.686.686v2.743c0,.539.147.686.686.686h2.743c.538,0,.686-.147.686-.686v-2.743c0-.539-.147-.686-.686-.686Zm-6.4,5.486h-2.743a1.89,1.89,0,0,1-2.057-2.057v-2.743a1.89,1.89,0,0,1,2.057-2.057h2.743a1.89,1.89,0,0,1,2.057,2.057v2.743A1.89,1.89,0,0,1,1276.05,3623.107Zm-2.743-5.486c-.539,0-.686.147-.686.686v2.743c0,.539.147.686.686.686h2.743c.539,0,.686-.147.686-.686v-2.743c0-.539-.147-.686-.686-.686Zm11.886,14.628h-2.743a1.89,1.89,0,0,1-2.057-2.057v-2.743a1.89,1.89,0,0,1,2.057-2.057h2.743a1.89,1.89,0,0,1,2.057,2.057v2.743A1.89,1.89,0,0,1,1285.193,3632.25Zm-2.743-5.486c-.538,0-.686.147-.686.686v2.743c0,.539.147.686.686.686h2.743c.538,0,.686-.147.686-.686v-2.743c0-.539-.147-.686-.686-.686Zm-6.4,5.486h-2.743a1.89,1.89,0,0,1-2.057-2.057v-2.743a1.89,1.89,0,0,1,2.057-2.057h2.743a1.89,1.89,0,0,1,2.057,2.057v2.743A1.89,1.89,0,0,1,1276.05,3632.25Zm-2.743-5.486c-.539,0-.686.147-.686.686v2.743c0,.539.147.686.686.686h2.743c.539,0,.686-.147.686-.686v-2.743c0-.539-.147-.686-.686-.686Z" transform="translate(4)" fill="#f8f9fb"/>
  </g>
</svg>
