<svg xmlns="http://www.w3.org/2000/svg" xmlns:xlink="http://www.w3.org/1999/xlink" viewBox="0 0 250 87.355"><defs><style>.cls-1{fill:#25314c;}.cls-2{fill:#8d99ae;}.cls-3{fill:url(#linear-gradient);}</style><linearGradient id="linear-gradient" x1="64.315" y1="29.389" x2="-4.033" y2="29.389" gradientUnits="userSpaceOnUse"><stop offset="0" stop-color="#c76ec4"/><stop offset="1" stop-color="#396ce8"/></linearGradient></defs><g id="Layer_2" data-name="Layer 2"><g id="Layer_1-2" data-name="Layer 1"><path class="cls-1" d="M46.907,47.559h6.1v1.956A8.8,8.8,0,0,1,59.3,47.093a8.024,8.024,0,0,1,6.847,3.4,9.113,9.113,0,0,1,7.358-3.4c4.983,0,8.849,3.307,8.849,8.71V70.054h-6.1V56.781a4.287,4.287,0,0,0-8.57,0V70.054h-6.1V56.781a4,4,0,0,0-4.285-4.146,4,4,0,0,0-4.285,4.146V70.054h-6.1Z"/><path class="cls-1" d="M86.631,58.83c0-6.66,4.657-11.737,10.758-11.737a8.981,8.981,0,0,1,6.568,2.608V47.559h6.054v22.5h-6.054V67.911a8.944,8.944,0,0,1-6.521,2.608C91.288,70.519,86.631,65.489,86.631,58.83Zm17.652-.046c0-3.541-2.329-6.056-5.729-6.056-3.354,0-5.682,2.515-5.682,6.056,0,3.585,2.328,6.1,5.682,6.1C101.954,64.884,104.283,62.369,104.283,58.784Z"/><path class="cls-1" d="M114.292,58.224c0-6.288,4.517-11.131,10.619-11.131a9.07,9.07,0,0,1,6.427,2.376v-1.91h6.054v21.33c0,6.707-5.03,11.131-12.2,11.131-4.8,0-8.523-1.77-10.712-4.89l3.866-3.865a8.045,8.045,0,0,0,6.8,3.166c3.773,0,6.149-2,6.149-5.449V67.12a9.093,9.093,0,0,1-6.381,2.329C118.809,69.449,114.292,64.6,114.292,58.224Zm17.372.046a5.3,5.3,0,0,0-5.542-5.635,5.636,5.636,0,0,0,0,11.272A5.305,5.305,0,0,0,131.664,58.27Z"/><path class="cls-1" d="M141.674,40.433a3.447,3.447,0,1,1,3.447,3.494A3.392,3.392,0,0,1,141.674,40.433Zm.373,7.126H148.2v22.5h-6.148Z"/><path class="cls-1" d="M169.765,62.838a6.244,6.244,0,0,1-4.808,2,5.727,5.727,0,0,1-5.872-6.054,5.716,5.716,0,0,1,5.872-6.013,6.319,6.319,0,0,1,4.778,1.954,17.35,17.35,0,0,1,2.237-5.467,12.136,12.136,0,0,0-19.123,9.567c0,6.661,5.214,11.692,12.108,11.692a11.672,11.672,0,0,0,7.066-2.217A17.385,17.385,0,0,1,169.765,62.838Z"/><path class="cls-1" d="M174.164,58.736a11.685,11.685,0,0,1,12.015-11.689c6.846,0,12.062,5.076,12.062,11.689a12.041,12.041,0,0,1-24.077,0ZM192,58.784a5.8,5.8,0,1,0-11.6,0c0,3.539,2.375,6.054,5.775,6.054A5.688,5.688,0,0,0,192,58.784Z"/><path class="cls-1" d="M200.382,58.736A11.685,11.685,0,0,1,212.4,47.047c6.846,0,12.062,5.076,12.062,11.689a12.042,12.042,0,0,1-24.078,0Zm17.838.048a5.8,5.8,0,1,0-11.6,0c0,3.539,2.376,6.054,5.776,6.054A5.688,5.688,0,0,0,218.22,58.784Z"/><path class="cls-1" d="M228.741,47.559h6.1V49.7a8.945,8.945,0,0,1,6.52-2.608,8.7,8.7,0,0,1,8.616,8.71V70.054h-6.1v-12.9a4.518,4.518,0,1,0-9.035,0v12.9h-6.1Z"/><path class="cls-2" d="M141.674,80.131h1.376v7.113h-1.376Z"/><path class="cls-2" d="M147.131,83.682a3.584,3.584,0,0,1,3.652-3.662,3.632,3.632,0,0,1,2.641,1.042l-.931.93a2.355,2.355,0,1,0-1.71,4.078,2.242,2.242,0,0,0,1.751-.7l.93.931a3.657,3.657,0,0,1-2.681,1.042A3.584,3.584,0,0,1,147.131,83.682Z"/><path class="cls-2" d="M156.757,83.672a3.683,3.683,0,1,1,3.694,3.683A3.655,3.655,0,0,1,156.757,83.672Zm5.95,0a2.275,2.275,0,1,0-2.276,2.4A2.222,2.222,0,0,0,162.707,83.672Z"/><path class="cls-2" d="M168.2,80.131h.961l3.562,4.613V80.131h1.386v7.113h-.991l-3.541-4.584v4.584H168.2Z"/><path class="cls-2" d="M177.875,86.171l.91-.91a2.023,2.023,0,0,0,1.74.87c.719,0,1.175-.3,1.175-.8,0-1.508-3.359-.75-3.359-3.269,0-1.285,1.021-2.043,2.407-2.043a2.96,2.96,0,0,1,2.277.981l-.911.91a1.758,1.758,0,0,0-1.386-.667c-.638,0-1.022.253-1.022.708,0,1.366,3.359.658,3.359,3.268,0,1.326-.991,2.125-2.61,2.125A3.069,3.069,0,0,1,177.875,86.171Z"/><path class="cls-2" d="M192.077,80.131h1.376V86.02h3.258v1.224h-4.634Z"/><path class="cls-2" d="M200.682,80.131h1.376v7.113h-1.376Z"/><path class="cls-2" d="M206.493,80.131h2.873a1.917,1.917,0,0,1,2.155,1.851,1.627,1.627,0,0,1-.87,1.458,1.9,1.9,0,0,1,1.133,1.76,2.107,2.107,0,0,1-2.377,2.044h-2.914Zm1.366,1.123v1.71h1.346c.566,0,.94-.284.94-.85s-.374-.86-.94-.86Zm0,2.823v2.044h1.5a1.022,1.022,0,1,0,0-2.044Z"/><path class="cls-2" d="M215.857,80.131h2.782a2.105,2.105,0,0,1,2.308,2.074,2.01,2.01,0,0,1-1.913,2.044l2.378,3h-1.669l-2.277-2.975h-.233v2.975h-1.376Zm1.376,1.123V83.2h1.286a.93.93,0,0,0,1.061-.971.961.961,0,0,0-1.061-.971Z"/><path class="cls-2" d="M227.286,80.131h1.123l2.853,7.113H229.8l-.506-1.326h-2.924l-.506,1.326h-1.436Zm1.568,4.634-1.012-2.692-1.032,2.692Z"/><path class="cls-2" d="M235.082,80.131h2.782a2.1,2.1,0,0,1,2.307,2.074,2.009,2.009,0,0,1-1.913,2.044l2.379,3h-1.67l-2.277-2.975h-.232v2.975h-1.376Zm1.376,1.123V83.2h1.285a.931.931,0,0,0,1.062-.971.962.962,0,0,0-1.062-.971Z"/><path class="cls-2" d="M246.054,84.219l-2.57-4.088h1.589l1.679,2.762,1.68-2.762H250l-2.56,4.027v3.086h-1.386Z"/><path class="cls-3" d="M29.391,58.779A1.548,1.548,0,0,1,27.9,57.657l-2.41-8.435A23.061,23.061,0,0,0,9.558,33.287l-8.435-2.41a1.547,1.547,0,0,1,0-2.975l8.435-2.41A23.061,23.061,0,0,0,25.493,9.557L27.9,1.122a1.547,1.547,0,0,1,2.975,0l2.41,8.435A23.063,23.063,0,0,0,49.223,25.492l8.435,2.41a1.609,1.609,0,0,1,0,2.975l-8.435,2.41A23.063,23.063,0,0,0,33.288,49.222l-2.41,8.435A1.547,1.547,0,0,1,29.391,58.779ZM9.266,58.442l.723-2.531a6.92,6.92,0,0,1,4.782-4.782l2.532-.723a.483.483,0,0,0,0-.893l-2.532-.723a6.923,6.923,0,0,1-4.782-4.782l-.723-2.532a.465.465,0,0,0-.893,0L7.65,44.008A6.923,6.923,0,0,1,2.868,48.79l-2.531.723a.464.464,0,0,0,0,.893l2.531.723A6.92,6.92,0,0,1,7.65,55.911l.723,2.531a.464.464,0,0,0,.893,0ZM53.11,11.51l.481-1.684a4.6,4.6,0,0,1,3.181-3.181l1.684-.481a.321.321,0,0,0,0-.594l-1.684-.481a4.606,4.606,0,0,1-3.181-3.181L53.11.224a.309.309,0,0,0-.594,0l-.481,1.684a4.6,4.6,0,0,1-3.181,3.181L47.17,5.57a.309.309,0,0,0,0,.594l1.684.481a4.6,4.6,0,0,1,3.181,3.181l.481,1.684a.309.309,0,0,0,.594,0Z"/></g></g></svg>