<svg xmlns="http://www.w3.org/2000/svg" width="15.753" height="24" viewBox="0 0 15.753 24">
  <g id="Group_684" data-name="Group 684" transform="translate(-0.167)">
    <path id="path0_fill" data-name="path0 fill" d="M3.92,1674.172a3.754,3.754,0,0,0,3.753-3.752v-3.752H3.92a3.752,3.752,0,1,0,0,7.5Z" transform="translate(0 -1650.172)" fill="#fcfcfd"/>
    <path id="path1_fill" data-name="path1 fill" d="M.167,837.086a3.754,3.754,0,0,1,3.753-3.753H7.672v7.505H3.92A3.754,3.754,0,0,1,.167,837.086Z" transform="translate(0 -825.086)" fill="#fcfcfd"/>
    <path id="path1_fill-2" data-name="path1 fill" d="M.167,3.753A3.754,3.754,0,0,1,3.92,0H7.672V7.505H3.92A3.754,3.754,0,0,1,.167,3.753Z" fill="#fcfcfd"/>
    <path id="path2_fill" data-name="path2 fill" d="M833.5,0h3.752a3.753,3.753,0,1,1,0,7.505H833.5Z" transform="translate(-825.086)" fill="#fcfcfd"/>
    <path id="path3_fill" data-name="path3 fill" d="M841.005,837.086a3.753,3.753,0,1,1-3.753-3.753A3.754,3.754,0,0,1,841.005,837.086Z" transform="translate(-825.086 -825.086)" fill="#fcfcfd"/>
  </g>
</svg>
